<svg id="Layer_1" data-name="Layer 1" xmlns="http://www.w3.org/2000/svg" viewBox="0 0 181.67 206.5"><defs><style>.cls-1{fill:#ff0;stroke:#660;stroke-miterlimit:10;}</style></defs><title>pizza-logo</title><path id="path29624" class="cls-1" d="M90.34,197.5A97.18,97.18,0,0,1,8.68,153.43l6.34-11a105.63,105.63,0,0,0,150.9-.27L172,153.38A97.18,97.18,0,0,1,90.34,197.5m89.85-45.87L165.71,125.1a4,4,0,1,0-7,3.83l3.21,5.87a97.63,97.63,0,0,1-142.71.43L90.31,12l55.1,96.82a4,4,0,1,0,7-4L93.81,2a4,4,0,0,0-3.46-2h0a4,4,0,0,0-3.47,2L.54,151.54a4,4,0,0,0,.07,4.12,105.69,105.69,0,0,0,179.46,0,4,4,0,0,0,.12-4" transform="translate(0.5 0.5)"/><path id="path29626" class="cls-1" d="M151.46,117.12a4,4,0,0,0,4,3.66l.35,0,.55,0a4,4,0,1,0-.68-8l-.55,0a4,4,0,0,0-3.65,4.33" transform="translate(0.5 0.5)"/><path id="path29628" class="cls-1" d="M153.41,158.59a97.68,97.68,0,0,1-22.26,14.19A4,4,0,1,0,134.5,180a105.55,105.55,0,0,0,24.08-15.34,4,4,0,0,0-5.17-6.11" transform="translate(0.5 0.5)"/><path id="path29630" class="cls-1" d="M116.31,178.2a97.92,97.92,0,0,1-81.47-13.8A4,4,0,0,0,30.28,171a105.91,105.91,0,0,0,88.15,14.93,4,4,0,1,0-2.12-7.71" transform="translate(0.5 0.5)"/><path id="path29632" class="cls-1" d="M28.05,159.46a4,4,0,0,0-1-1.19,4.08,4.08,0,0,0-5.45.21,4,4,0,0,0-.45,5.09,4,4,0,0,0,.92,1.13,4.12,4.12,0,0,0,2.66,1,4,4,0,0,0,3.3-6.2" transform="translate(0.5 0.5)"/><path id="path29634" class="cls-1" d="M123.44,125.57a9,9,0,1,1-9,9,9,9,0,0,1,9-9m0,26a17,17,0,1,0-17-17,17,17,0,0,0,17,17" transform="translate(0.5 0.5)"/><path id="path29636" class="cls-1" d="M74.4,109.41a6.67,6.67,0,1,1,6.66-6.66,6.67,6.67,0,0,1-6.66,6.66m0-21.33a14.67,14.67,0,1,0,14.66,14.67A14.69,14.69,0,0,0,74.4,88.08" transform="translate(0.5 0.5)"/><path id="path29638" class="cls-1" d="M97.92,52.94a3.57,3.57,0,0,1,3.3,2.18h0a3.42,3.42,0,0,1,.28,1.39,3.58,3.58,0,1,1-3.58-3.58m0,15.16A11.59,11.59,0,0,0,109.5,56.52,11.57,11.57,0,0,0,97.92,44.94a11.58,11.58,0,1,0,0,23.16" transform="translate(0.5 0.5)"/></svg>